<svg width="39" height="34" viewBox="0 0 39 34" fill="none" xmlns="http://www.w3.org/2000/svg">
<path d="M35.2144 5.72266H29.1429L27.6965 1.66909C27.5966 1.39171 27.4134 1.15195 27.1721 0.982556C26.9308 0.813162 26.6431 0.722396 26.3483 0.722657H12.6519C12.0492 0.722657 11.509 1.10212 11.3081 1.66909L9.85721 5.72266H3.78578C1.81257 5.72266 0.214355 7.32087 0.214355 9.29409V29.6512C0.214355 31.6244 1.81257 33.2227 3.78578 33.2227H35.2144C37.1876 33.2227 38.7858 31.6244 38.7858 29.6512V9.29409C38.7858 7.32087 37.1876 5.72266 35.2144 5.72266ZM35.5715 29.6512C35.5715 29.8477 35.4108 30.0084 35.2144 30.0084H3.78578C3.58936 30.0084 3.42864 29.8477 3.42864 29.6512V9.29409C3.42864 9.09766 3.58936 8.93694 3.78578 8.93694H12.1206L12.884 6.80302L13.9063 3.93694H25.0894L26.1117 6.80302L26.8751 8.93694H35.2144C35.4108 8.93694 35.5715 9.09766 35.5715 9.29409V29.6512ZM19.5001 11.7941C15.5536 11.7941 12.3572 14.9905 12.3572 18.9369C12.3572 22.8834 15.5536 26.0798 19.5001 26.0798C23.4465 26.0798 26.6429 22.8834 26.6429 18.9369C26.6429 14.9905 23.4465 11.7941 19.5001 11.7941ZM19.5001 23.2227C17.134 23.2227 15.2144 21.303 15.2144 18.9369C15.2144 16.5709 17.134 14.6512 19.5001 14.6512C21.8661 14.6512 23.7858 16.5709 23.7858 18.9369C23.7858 21.303 21.8661 23.2227 19.5001 23.2227Z" fill="#1A3D38"/>
</svg>
