<svg width="20" height="19" viewBox="0 0 20 19" fill="none" xmlns="http://www.w3.org/2000/svg">
<path d="M10 0.577148C11.3503 0.577148 12.6583 0.840098 13.8926 1.3623C15.0807 1.86428 16.1603 2.59271 17.0713 3.50586C17.9844 4.4168 18.7119 5.49644 19.2139 6.68457C19.7339 7.9189 20 9.22676 20 10.5771C20 13.5392 18.6982 16.3291 16.4326 18.2354L16.3955 18.2666C16.2661 18.3737 16.1029 18.4345 15.9355 18.4346H4.06738C3.9 18.4346 3.73688 18.3737 3.60742 18.2666L3.56934 18.2354C1.30151 16.3291 2.23805e-05 13.5392 0 10.5771C0 9.22676 0.263854 7.9189 0.786133 6.68457C1.2881 5.49644 2.01558 4.4168 2.92871 3.50586C3.83966 2.59271 4.91927 1.86428 6.10742 1.3623C7.34168 0.840098 8.6497 0.577148 10 0.577148ZM10 2.27344C7.78369 2.27344 5.69903 3.13714 4.12988 4.70605C2.56069 6.27302 1.69629 8.3584 1.69629 10.5771C1.69512 11.7385 1.93871 12.8869 2.41016 13.9482C2.88152 15.0094 3.57034 15.9597 4.43262 16.7373H15.5674C17.3104 15.1637 18.3037 12.9341 18.3037 10.5771C18.3037 8.36063 17.4393 6.27525 15.8701 4.70605C14.3032 3.13714 12.2185 2.27344 10 2.27344ZM12.3623 7.43359C12.4095 7.43359 12.4557 7.45212 12.4893 7.48535L13.1201 8.11719C13.1893 8.18638 13.1893 8.29994 13.1201 8.36914L11.2344 10.2559C11.2914 10.4678 11.2912 10.6914 11.2344 10.9033C11.1776 11.115 11.0663 11.3081 10.9111 11.4629C10.7951 11.5791 10.6566 11.6715 10.5049 11.7344C10.3533 11.7972 10.1905 11.8301 10.0264 11.8301C9.86231 11.83 9.6994 11.7972 9.54785 11.7344C9.39636 11.6715 9.25846 11.579 9.14258 11.4629C9.0265 11.347 8.93395 11.2092 8.87109 11.0576C8.80826 10.906 8.77637 10.7432 8.77637 10.5791C8.77639 10.415 8.80821 10.2522 8.87109 10.1006C8.93398 9.94898 9.02642 9.81128 9.14258 9.69531C9.4707 9.36719 9.93318 9.26046 10.3506 9.37207L12.2363 7.48535C12.2698 7.45222 12.3152 7.4337 12.3623 7.43359ZM4.41992 9.90723C4.51799 9.90738 4.5986 9.98784 4.59863 10.0859V11.0684C4.59852 11.1664 4.51794 11.2469 4.41992 11.2471H2.63379C2.53571 11.247 2.4552 11.1664 2.45508 11.0684V10.0859C2.45511 9.9878 2.53566 9.9073 2.63379 9.90723H4.41992ZM17.2764 9.90723C17.3746 9.90723 17.455 9.98775 17.4551 10.0859V11.0684C17.455 11.1665 17.3745 11.2471 17.2764 11.2471H15.4912C15.3931 11.2471 15.3126 11.1665 15.3125 11.0684V10.0859C15.3125 9.98775 15.393 9.90723 15.4912 9.90723H17.2764ZM5.2334 4.93848C5.28058 4.93851 5.32585 4.95703 5.35938 4.99023L6.62305 6.25293C6.69223 6.32212 6.69221 6.43666 6.62305 6.50586L5.92871 7.2002C5.85963 7.26915 5.74596 7.26897 5.67676 7.2002L4.41309 5.93652C4.3799 5.90301 4.36138 5.8577 4.36133 5.81055C4.36133 5.76337 4.37992 5.71812 4.41309 5.68457L5.10742 4.99023C5.14098 4.95702 5.18618 4.93848 5.2334 4.93848ZM14.7754 4.93848C14.8226 4.93848 14.8678 4.95707 14.9014 4.99023L15.5957 5.68457C15.6649 5.75377 15.6649 5.86734 15.5957 5.93652L14.333 7.2002C14.2638 7.26938 14.1493 7.26935 14.0801 7.2002L13.3857 6.50586C13.3527 6.47239 13.3341 6.42694 13.334 6.37988C13.334 6.33265 13.3525 6.28649 13.3857 6.25293L14.6494 4.99023C14.6829 4.95707 14.7283 4.93855 14.7754 4.93848ZM10.4912 3.07715C10.5894 3.07722 10.6699 3.15769 10.6699 3.25586V5.04102C10.6699 5.13918 10.5894 5.21965 10.4912 5.21973H9.50879C9.41064 5.21965 9.33008 5.13918 9.33008 5.04102V3.25586C9.33008 3.15769 9.41064 3.07722 9.50879 3.07715H10.4912Z" fill="white"/>
</svg>
