<svg width="18" height="18" viewBox="0 0 18 18" fill="none" xmlns="http://www.w3.org/2000/svg">
<path d="M15.9691 13.1975C15.4104 12.6384 14.7576 12.182 14.0406 11.8493C15.0517 11.0301 15.6968 9.7801 15.6968 8.37831C15.6968 5.9051 13.6343 3.87608 11.1611 3.91403C8.72584 3.95198 6.76379 5.93635 6.76379 8.37831C6.76379 9.7801 7.41111 11.0301 8.42004 11.8493C7.70286 12.1817 7.04999 12.6381 6.49146 13.1975C5.27271 14.4185 4.58075 16.0301 4.53611 17.7488C4.53551 17.7727 4.53969 17.7964 4.5484 17.8186C4.5571 17.8407 4.57016 17.861 4.5868 17.878C4.60345 17.8951 4.62333 17.9086 4.6453 17.9179C4.66726 17.9271 4.69085 17.9319 4.71468 17.9319H5.96468C6.06066 17.9319 6.14102 17.856 6.14325 17.76C6.18566 16.4654 6.71021 15.2533 7.63209 14.3337C8.10383 13.8594 8.66495 13.4834 9.28296 13.2275C9.90098 12.9716 10.5636 12.8407 11.2325 12.8426C12.5919 12.8426 13.8709 13.3716 14.833 14.3337C15.7526 15.2533 16.2772 16.4654 16.3218 17.76C16.3241 17.856 16.4044 17.9319 16.5004 17.9319H17.7504C17.7742 17.9319 17.7978 17.9271 17.8198 17.9179C17.8417 17.9086 17.8616 17.8951 17.8783 17.878C17.8949 17.861 17.908 17.8407 17.9167 17.8186C17.9254 17.7964 17.9296 17.7727 17.929 17.7488C17.8843 16.0301 17.1924 14.4185 15.9691 13.1975ZM11.2325 11.2355C10.4691 11.2355 9.75039 10.9386 9.21245 10.3984C8.94248 10.1306 8.72922 9.81108 8.58541 9.45903C8.4416 9.10697 8.37017 8.72956 8.37539 8.3493C8.38209 7.61715 8.6745 6.90956 9.18566 6.38501C9.72137 5.8359 10.4379 5.5301 11.2035 5.52117C11.9602 5.51448 12.6946 5.80912 13.2348 6.33814C13.7883 6.88055 14.0919 7.60599 14.0919 8.37831C14.0919 9.14171 13.795 9.85823 13.2549 10.3984C12.9898 10.6647 12.6747 10.8758 12.3275 11.0195C11.9804 11.1631 11.6082 11.2366 11.2325 11.2355ZM5.64102 8.9676C5.62093 8.7734 5.60977 8.57698 5.60977 8.37831C5.60977 8.0234 5.64325 7.67742 5.70575 7.34037C5.72137 7.26001 5.67896 7.17742 5.6053 7.14394C5.30173 7.00778 5.02271 6.82028 4.78164 6.58367C4.49758 6.30824 4.27405 5.97662 4.12531 5.60997C3.97658 5.24332 3.90591 4.8497 3.9178 4.45421C3.93789 3.73769 4.22584 3.05689 4.72807 2.54349C5.27941 1.97876 6.02048 1.67072 6.80843 1.67965C7.52048 1.68635 8.20798 1.9609 8.72807 2.44751C8.90441 2.61269 9.0562 2.79572 9.18343 2.99215C9.22807 3.06135 9.31512 3.09037 9.39102 3.06358C9.78387 2.92742 10.1991 2.83144 10.6254 2.7868C10.7504 2.7734 10.8218 2.63947 10.766 2.52787C10.0406 1.0926 8.55843 0.101528 6.84414 0.0747425C4.3687 0.0367961 2.3062 2.06581 2.3062 4.5368C2.3062 5.93858 2.95129 7.18858 3.96245 8.00778C3.25262 8.3359 2.59861 8.78903 2.03164 9.35599C0.808429 10.577 0.116465 12.1886 0.0718217 13.9096C0.0712259 13.9334 0.0754046 13.9571 0.0841115 13.9793C0.0928184 14.0015 0.105877 14.0217 0.122519 14.0387C0.139161 14.0558 0.159048 14.0693 0.18101 14.0786C0.202971 14.0878 0.226562 14.0926 0.250393 14.0926H1.50263C1.59861 14.0926 1.67896 14.0167 1.6812 13.9207C1.72361 12.6261 2.24816 11.414 3.17004 10.4944C3.82629 9.83814 4.62986 9.38278 5.50709 9.1618C5.59414 9.13947 5.65218 9.05689 5.64102 8.9676Z" fill="white"/>
</svg>
