<svg width="18" height="20" viewBox="0 0 18 20" fill="none" xmlns="http://www.w3.org/2000/svg">
<path d="M14.5134 6.04353C14.5134 2.98549 12.0357 0.507812 8.97765 0.507812C5.91961 0.507812 3.44193 2.98549 3.44193 6.04353C3.44193 7.89174 4.34818 9.53013 5.74104 10.5346C5.73211 10.5391 5.72541 10.5413 5.72095 10.5435C4.72318 10.9654 3.82809 11.5703 3.058 12.3426C2.29236 13.1069 1.68281 14.0129 1.26336 15.01C0.850667 15.9865 0.627941 17.0327 0.607111 18.0926C0.606516 18.1165 0.610694 18.1402 0.619401 18.1623C0.628108 18.1845 0.641167 18.2047 0.657809 18.2218C0.67445 18.2389 0.694338 18.2524 0.716299 18.2617C0.738261 18.2709 0.761852 18.2757 0.785683 18.2757H2.12274C2.21872 18.2757 2.29908 18.1975 2.30131 18.1016C2.34595 16.3783 3.03568 14.7645 4.25666 13.5413C5.51783 12.2757 7.19193 11.5792 8.97765 11.5792C12.0357 11.5792 14.5134 9.10156 14.5134 6.04353ZM8.97765 9.88281C6.85711 9.88281 5.13836 8.16406 5.13836 6.04353C5.13836 3.92299 6.85711 2.20424 8.97765 2.20424C11.0982 2.20424 12.8169 3.92299 12.8169 6.04353C12.8169 8.16406 11.0982 9.88281 8.97765 9.88281ZM11.3214 14.8158H17.2143C17.3125 14.8158 17.3928 14.7355 17.3928 14.6373V13.3873C17.3928 13.2891 17.3125 13.2087 17.2143 13.2087H13.2745L14.3281 11.8672C14.3524 11.8359 14.3657 11.7974 14.366 11.7578C14.366 11.6596 14.2857 11.5792 14.1875 11.5792H12.5669C12.4576 11.5792 12.3549 11.6306 12.2857 11.7154L10.7567 13.6596C10.6585 13.7846 10.6049 13.9408 10.6049 14.1016C10.6071 14.4967 10.9263 14.8158 11.3214 14.8158ZM16.6785 16.2444H10.7857C10.6875 16.2444 10.6071 16.3248 10.6071 16.423V17.673C10.6071 17.7712 10.6875 17.8516 10.7857 17.8516H14.7254L13.6718 19.1931C13.6475 19.2244 13.6342 19.2628 13.6339 19.3025C13.6339 19.4007 13.7143 19.481 13.8125 19.481H15.433C15.5424 19.481 15.6451 19.4297 15.7143 19.3449L17.2433 17.4007C17.3415 17.2757 17.3951 17.1194 17.3951 16.9587C17.3928 16.5636 17.0736 16.2444 16.6785 16.2444Z" fill="white"/>
</svg>
