<svg width="18" height="14" viewBox="0 0 18 14" fill="none" xmlns="http://www.w3.org/2000/svg">
<path d="M5.20544 6.10575H12.8394C12.8483 6.10575 12.8595 6.10575 12.8684 6.10352C12.9666 6.08789 13.0313 5.99637 13.0157 5.89816L12.1184 0.362444C12.105 0.275391 12.0291 0.212891 11.942 0.212891H6.10276C6.01571 0.212891 5.93982 0.275391 5.92642 0.362444L5.0291 5.89816C5.02687 5.90709 5.02687 5.91825 5.02687 5.92718C5.02687 6.02539 5.10723 6.10575 5.20544 6.10575ZM7.24116 1.73075H10.8014L11.2635 4.58789H6.77687L7.24116 1.73075ZM7.29696 8.04102C7.28357 7.95396 7.20767 7.89146 7.12062 7.89146H1.28134C1.19428 7.89146 1.11839 7.95396 1.105 8.04102L0.207675 13.5767C0.205442 13.5857 0.205442 13.5968 0.205442 13.6057C0.205442 13.704 0.2858 13.7843 0.384014 13.7843H8.01794C8.02687 13.7843 8.03803 13.7843 8.04696 13.7821C8.14517 13.7665 8.20991 13.6749 8.19428 13.5767L7.29696 8.04102ZM1.95767 12.2665L2.41973 9.40932H5.98L6.44205 12.2665H1.95767ZM17.7925 13.5767L16.8952 8.04102C16.8818 7.95396 16.8059 7.89146 16.7188 7.89146H10.8795C10.7925 7.89146 10.7166 7.95396 10.7032 8.04102L9.80589 13.5767C9.80366 13.5857 9.80366 13.5968 9.80366 13.6057C9.80366 13.704 9.88401 13.7843 9.98223 13.7843H17.6162C17.6251 13.7843 17.6362 13.7843 17.6452 13.7821C17.7412 13.7665 17.8081 13.6749 17.7925 13.5767ZM11.5559 12.2665L12.0179 9.40932H15.5782L16.0403 12.2665H11.5559Z" fill="white"/>
</svg>
