<svg width="24" height="24" viewBox="0 0 24 24" fill="none" xmlns="http://www.w3.org/2000/svg">
<path d="M10.5 5C13.5376 5 16 7.46243 16 10.5C16 11.8388 15.5217 13.0659 14.7266 14.0196L18.8536 18.1464C19.0488 18.3417 19.0488 18.6583 18.8536 18.8536C18.68 19.0271 18.4106 19.0464 18.2157 18.9114L18.1464 18.8536L14.0196 14.7266C13.0659 15.5217 11.8388 16 10.5 16C7.46243 16 5 13.5376 5 10.5C5 7.46243 7.46243 5 10.5 5ZM10.5 6C8.01472 6 6 8.01472 6 10.5C6 12.9853 8.01472 15 10.5 15C12.9853 15 15 12.9853 15 10.5C15 8.01472 12.9853 6 10.5 6Z" fill="#222222"/>
</svg>
