<svg width="12" height="11" viewBox="0 0 12 11" fill="none" xmlns="http://www.w3.org/2000/svg">
<path d="M1 0.00292969C1.06851 0.00305819 1.12479 0.059437 1.125 0.12793V9.87793H11.875C11.9435 9.87806 11.9998 9.93444 12 10.0029V10.8779C12 10.9466 11.9436 11.0028 11.875 11.0029H0.125C0.05625 11.0029 0 10.9467 0 10.8779V0.12793C0.000214493 0.059359 0.0563814 0.00292969 0.125 0.00292969H1ZM10.8818 2.19043C10.9148 2.19044 10.9463 2.20348 10.9697 2.22656L11.5889 2.8457C11.6372 2.89415 11.6373 2.97406 11.5889 3.02246L7.28613 7.32324C7.2377 7.37168 7.15781 7.37168 7.10938 7.32324L5.11523 5.31738L2.9541 7.46777C2.90423 7.51571 2.82667 7.51568 2.77832 7.46777L2.16113 6.84668C2.13787 6.82319 2.12402 6.79185 2.12402 6.75879C2.12402 6.72573 2.13787 6.69439 2.16113 6.6709L5.03223 3.81543C5.05572 3.79218 5.08804 3.7793 5.12109 3.7793C5.15394 3.77936 5.18557 3.79239 5.20898 3.81543L7.2002 5.81934L10.7939 2.22656C10.8174 2.2035 10.8489 2.19043 10.8818 2.19043Z" fill="white"/>
</svg>
